<?xml version="1.0" encoding="utf-8"?>
<!-- Generator: Adobe Illustrator 16.0.0, SVG Export Plug-In . SVG Version: 6.00 Build 0)  -->
<!DOCTYPE svg PUBLIC "-//W3C//DTD SVG 1.1//EN" "http://www.w3.org/Graphics/SVG/1.1/DTD/svg11.dtd">
<svg version="1.1" id="Layer_1" xmlns="http://www.w3.org/2000/svg" xmlns:xlink="http://www.w3.org/1999/xlink" x="0px" y="0px"
	 width="22px" height="22px" viewBox="0 0 22 22" enable-background="new 0 0 22 22" xml:space="preserve">
<g>
	<g>
		<g>
			<path fill="#FFFFFF" d="M11,0C4.909,0,0,4.909,0,11s4.909,11,11,11s11-4.909,11-11S17.091,0,11,0z M17.692,8.583
				c0,0.129,0,0.279,0,0.408c0,4.125-3.126,8.884-8.884,8.884c-1.751,0-3.405-0.483-4.78-1.375c0.226,0.021,0.483,0.054,0.73,0.054
				c1.482,0,2.804-0.591,3.878-1.429c-1.354-0.021-2.524-0.87-2.911-2.116c0.183,0.032,0.387,0.054,0.591,0.054
				c0.279,0,0.559-0.021,0.816-0.097C5.704,12.654,4.63,11.408,4.63,9.883V9.851c0.408,0.236,0.892,0.387,1.407,0.387
				c-0.838-0.559-1.375-1.504-1.375-2.6c0-0.559,0.15-1.096,0.408-1.579c1.547,1.912,3.867,3.158,6.467,3.287
				c-0.054-0.226-0.075-0.483-0.075-0.709c0-1.74,1.375-3.137,3.104-3.137c0.892,0,1.708,0.387,2.267,0.988
				c0.709-0.15,1.343-0.397,1.955-0.763c-0.226,0.741-0.688,1.354-1.343,1.74c0.634-0.086,1.246-0.258,1.805-0.494
				C18.82,7.584,18.305,8.153,17.692,8.583z"/>
		</g>
	</g>
</g>
</svg>
